<svg width="130" height="140" viewBox="0 0 130 140" fill="none" xmlns="http://www.w3.org/2000/svg">
<g filter="url(#filter0_d_0_1213)">
<path d="M26.2633 30.1005C26.2633 27.8055 28.1238 25.9451 30.4187 25.9451H99.9449C102.24 25.9451 104.1 27.8055 104.1 30.1005V103.651C104.1 109.389 99.4492 114.04 93.7118 114.04H30.4187C28.1238 114.04 26.2633 112.179 26.2633 109.884V30.1005Z" fill="white"/>
<path d="M53.9371 62.2189V60.3508H57.4271V70.9077H55.3418V62.2189H53.9371ZM66.5258 62.1031H61.8338V64.5794C62.0366 64.3284 62.3262 64.1256 62.7027 63.9712C63.0792 63.807 63.4799 63.725 63.9046 63.725C64.677 63.725 65.3093 63.8939 65.8017 64.2318C66.2941 64.5697 66.6513 65.0042 66.8733 65.5352C67.0954 66.0565 67.2064 66.6164 67.2064 67.215C67.2064 68.3252 66.8878 69.2182 66.2506 69.894C65.6231 70.5698 64.7253 70.9077 63.5571 70.9077C62.4565 70.9077 61.578 70.6326 60.9215 70.0823C60.265 69.532 59.8933 68.8128 59.8064 67.9246H61.7759C61.8628 68.3107 62.0559 68.6197 62.3551 68.8514C62.6641 69.0831 63.0551 69.1989 63.5281 69.1989C64.0977 69.1989 64.5273 69.0203 64.817 68.6631C65.1066 68.3059 65.2514 67.8329 65.2514 67.2439C65.2514 66.6454 65.1018 66.1916 64.8025 65.8827C64.5129 65.5641 64.0833 65.4048 63.5137 65.4048C63.1082 65.4048 62.7703 65.5062 62.5 65.7089C62.2296 65.9117 62.0366 66.182 61.9207 66.5199H59.9802V60.3219H66.5258V62.1031ZM73.731 70.9077L71.0085 67.4901V70.9077H68.9811V60.1915H71.0085V66.2882L73.702 62.8851H76.3376L72.8042 66.9109L76.3666 70.9077H73.731Z" fill="#09B451"/>
<path d="M52.5556 83.6015H50.4486L50.0866 84.6296H49.2249L51.0278 79.5901H51.9836L53.7865 84.6296H52.9177L52.5556 83.6015ZM52.3239 82.9281L51.5057 80.5894L50.6803 82.9281H52.3239ZM59.4 80.5749C59.7137 80.5749 59.9937 80.64 60.2399 80.7704C60.4909 80.9007 60.6864 81.0938 60.8264 81.3496C60.9712 81.6055 61.0436 81.9144 61.0436 82.2764V84.6296H60.2254V82.3995C60.2254 82.0423 60.1361 81.7696 59.9575 81.5813C59.7789 81.3882 59.5351 81.2917 59.2262 81.2917C58.9173 81.2917 58.6711 81.3882 58.4876 81.5813C58.309 81.7696 58.2197 82.0423 58.2197 82.3995V84.6296H57.4015V82.3995C57.4015 82.0423 57.3122 81.7696 57.1336 81.5813C56.955 81.3882 56.7113 81.2917 56.4023 81.2917C56.0934 81.2917 55.8472 81.3882 55.6638 81.5813C55.4852 81.7696 55.3959 82.0423 55.3959 82.3995V84.6296H54.5705V80.64H55.3959V81.0962C55.531 80.9321 55.7024 80.8042 55.91 80.7124C56.1175 80.6207 56.3396 80.5749 56.5761 80.5749C56.8947 80.5749 57.1795 80.6425 57.4305 80.7776C57.6815 80.9128 57.8746 81.1083 58.0098 81.3641C58.1304 81.1227 58.3187 80.9321 58.5745 80.7921C58.8304 80.6473 59.1055 80.5749 59.4 80.5749ZM61.8188 82.6167C61.8188 82.2161 61.9009 81.8613 62.065 81.5524C62.2339 81.2434 62.4608 81.0045 62.7456 80.8355C63.0352 80.6618 63.3538 80.5749 63.7014 80.5749C64.0151 80.5749 64.2879 80.6376 64.5196 80.7631C64.7561 80.8838 64.9443 81.0359 65.0843 81.2193V80.64H65.917V84.6296H65.0843V84.0359C64.9443 84.2242 64.7537 84.381 64.5123 84.5065C64.271 84.6321 63.9958 84.6948 63.6869 84.6948C63.3442 84.6948 63.0304 84.6079 62.7456 84.4341C62.4608 84.2555 62.2339 84.0094 62.065 83.6956C61.9009 83.377 61.8188 83.0174 61.8188 82.6167ZM65.0843 82.6312C65.0843 82.3561 65.0264 82.1171 64.9106 81.9144C64.7995 81.7117 64.6523 81.5572 64.4689 81.451C64.2854 81.3448 64.0875 81.2917 63.8751 81.2917C63.6628 81.2917 63.4648 81.3448 63.2814 81.451C63.098 81.5524 62.9483 81.7044 62.8325 81.9072C62.7215 82.1051 62.666 82.3416 62.666 82.6167C62.666 82.8919 62.7215 83.1332 62.8325 83.3408C62.9483 83.5484 63.098 83.7077 63.2814 83.8187C63.4697 83.9249 63.6676 83.978 63.8751 83.978C64.0875 83.978 64.2854 83.9249 64.4689 83.8187C64.6523 83.7125 64.7995 83.558 64.9106 83.3553C65.0264 83.1477 65.0843 82.9064 65.0843 82.6312ZM67.7325 83.9563H69.5426V84.6296H66.7767V83.9563L68.5941 81.3134H66.7767V80.64H69.5426V81.3134L67.7325 83.9563ZM70.8293 80.1115C70.6797 80.1115 70.5542 80.0608 70.4528 79.9594C70.3515 79.858 70.3008 79.7325 70.3008 79.5829C70.3008 79.4333 70.3515 79.3078 70.4528 79.2064C70.5542 79.105 70.6797 79.0543 70.8293 79.0543C70.9741 79.0543 71.0972 79.105 71.1986 79.2064C71.3 79.3078 71.3507 79.4333 71.3507 79.5829C71.3507 79.7325 71.3 79.858 71.1986 79.9594C71.0972 80.0608 70.9741 80.1115 70.8293 80.1115ZM71.2348 80.64V84.6296H70.4094V80.64H71.2348ZM74.3314 80.5749C74.6452 80.5749 74.9252 80.64 75.1714 80.7704C75.4224 80.9007 75.6179 81.0938 75.7578 81.3496C75.8978 81.6055 75.9678 81.9144 75.9678 82.2764V84.6296H75.1496V82.3995C75.1496 82.0423 75.0603 81.7696 74.8817 81.5813C74.7031 81.3882 74.4594 81.2917 74.1504 81.2917C73.8415 81.2917 73.5953 81.3882 73.4119 81.5813C73.2333 81.7696 73.144 82.0423 73.144 82.3995V84.6296H72.3185V80.64H73.144V81.0962C73.2791 80.9321 73.4505 80.8042 73.6581 80.7124C73.8704 80.6207 74.0949 80.5749 74.3314 80.5749ZM78.6281 80.5749C78.9371 80.5749 79.2098 80.6376 79.4463 80.7631C79.6877 80.8838 79.8759 81.0359 80.0111 81.2193V80.64H80.8438V84.6948C80.8438 85.0617 80.7665 85.3875 80.6121 85.6723C80.4576 85.9619 80.2332 86.1888 79.9387 86.3529C79.6491 86.517 79.3015 86.5991 78.896 86.5991C78.3554 86.5991 77.9065 86.4712 77.5493 86.2153C77.1921 85.9643 76.9893 85.6216 76.9411 85.1872H77.7593C77.822 85.3947 77.9548 85.5613 78.1575 85.6868C78.3651 85.8171 78.6112 85.8823 78.896 85.8823C79.2291 85.8823 79.497 85.7809 79.6998 85.5782C79.9073 85.3754 80.0111 85.081 80.0111 84.6948V84.0287C79.8711 84.2169 79.6805 84.3762 79.4391 84.5065C79.2026 84.6321 78.9323 84.6948 78.6281 84.6948C78.2806 84.6948 77.962 84.6079 77.6724 84.4341C77.3876 84.2555 77.1607 84.0094 76.9918 83.6956C76.8276 83.377 76.7456 83.0174 76.7456 82.6167C76.7456 82.2161 76.8276 81.8613 76.9918 81.5524C77.1607 81.2434 77.3876 81.0045 77.6724 80.8355C77.962 80.6618 78.2806 80.5749 78.6281 80.5749ZM80.0111 82.6312C80.0111 82.3561 79.9532 82.1171 79.8373 81.9144C79.7263 81.7117 79.5791 81.5572 79.3957 81.451C79.2122 81.3448 79.0143 81.2917 78.8019 81.2917C78.5895 81.2917 78.3916 81.3448 78.2082 81.451C78.0248 81.5524 77.8751 81.7044 77.7593 81.9072C77.6482 82.1051 77.5927 82.3416 77.5927 82.6167C77.5927 82.8919 77.6482 83.1332 77.7593 83.3408C77.8751 83.5484 78.0248 83.7077 78.2082 83.8187C78.3964 83.9249 78.5944 83.978 78.8019 83.978C79.0143 83.978 79.2122 83.9249 79.3957 83.8187C79.5791 83.7125 79.7263 83.558 79.8373 83.3553C79.9532 83.1477 80.0111 82.9064 80.0111 82.6312ZM36.973 95.6948C36.6592 95.6948 36.3768 95.6393 36.1258 95.5283C35.8796 95.4124 35.6841 95.258 35.5393 95.0649C35.3945 94.867 35.3173 94.6473 35.3076 94.406H36.162C36.1765 94.5749 36.2562 94.7173 36.401 94.8332C36.5506 94.9442 36.7364 94.9997 36.9585 94.9997C37.1902 94.9997 37.3688 94.9563 37.4943 94.8694C37.6246 94.7777 37.6898 94.6618 37.6898 94.5218C37.6898 94.3722 37.6174 94.2612 37.4726 94.1887C37.3326 94.1163 37.1081 94.0367 36.7992 93.9498C36.4999 93.8677 36.2562 93.7881 36.0679 93.7109C35.8796 93.6336 35.7155 93.5154 35.5755 93.3561C35.4404 93.1968 35.3728 92.9868 35.3728 92.7261C35.3728 92.5137 35.4355 92.3207 35.5611 92.1469C35.6866 91.9683 35.8652 91.8283 36.0969 91.7269C36.3334 91.6256 36.6037 91.5749 36.9078 91.5749C37.3616 91.5749 37.726 91.6907 38.0012 91.9224C38.2811 92.1493 38.4308 92.4606 38.4501 92.8565H37.6246C37.6102 92.6779 37.5377 92.5355 37.4074 92.4293C37.2771 92.3231 37.1009 92.27 36.8788 92.27C36.6616 92.27 36.4951 92.311 36.3792 92.3931C36.2634 92.4751 36.2055 92.5837 36.2055 92.7189C36.2055 92.8251 36.2441 92.9144 36.3213 92.9868C36.3986 93.0592 36.4927 93.1171 36.6037 93.1606C36.7147 93.1992 36.8788 93.2499 37.0961 93.3126C37.3857 93.3899 37.6222 93.4695 37.8057 93.5516C37.9939 93.6288 38.1556 93.7447 38.2908 93.8991C38.4259 94.0536 38.4959 94.2587 38.5008 94.5146C38.5008 94.7415 38.438 94.9442 38.3125 95.1228C38.187 95.3014 38.0084 95.4414 37.7767 95.5428C37.5498 95.6441 37.2819 95.6948 36.973 95.6948ZM40.3557 92.3134V94.5218C40.3557 94.6715 40.3895 94.7801 40.457 94.8476C40.5294 94.9104 40.6501 94.9418 40.8191 94.9418H41.3259V95.6296H40.6743C40.3026 95.6296 40.0178 95.5428 39.8199 95.369C39.6219 95.1952 39.523 94.9128 39.523 94.5218V92.3134H39.0523V91.64H39.523V90.6481H40.3557V91.64H41.3259V92.3134H40.3557ZM45.6998 91.64V95.6296H44.8743V95.159C44.744 95.3231 44.5726 95.4534 44.3603 95.55C44.1527 95.6417 43.9306 95.6876 43.6941 95.6876C43.3804 95.6876 43.098 95.6224 42.847 95.4921C42.6008 95.3617 42.4053 95.1687 42.2605 94.9128C42.1205 94.657 42.0505 94.348 42.0505 93.986V91.64H42.8687V93.8629C42.8687 94.2201 42.958 94.4953 43.1366 94.6884C43.3152 94.8766 43.559 94.9707 43.8679 94.9707C44.1768 94.9707 44.4206 94.8766 44.5992 94.6884C44.7826 94.4953 44.8743 94.2201 44.8743 93.8629V91.64H45.6998ZM46.5137 93.6167C46.5137 93.2161 46.5958 92.8613 46.7599 92.5524C46.9289 92.2434 47.1557 92.0045 47.4405 91.8355C47.7302 91.6618 48.0512 91.5749 48.4035 91.5749C48.6642 91.5749 48.92 91.6328 49.171 91.7486C49.4269 91.8597 49.6296 92.0093 49.7793 92.1976V90.2716H50.6119V95.6296H49.7793V95.0287C49.6441 95.2217 49.4558 95.381 49.2145 95.5065C48.978 95.6321 48.7052 95.6948 48.3963 95.6948C48.0487 95.6948 47.7302 95.6079 47.4405 95.4341C47.1557 95.2555 46.9289 95.0094 46.7599 94.6956C46.5958 94.377 46.5137 94.0174 46.5137 93.6167ZM49.7793 93.6312C49.7793 93.3561 49.7213 93.1171 49.6055 92.9144C49.4945 92.7117 49.3472 92.5572 49.1638 92.451C48.9804 92.3448 48.7825 92.2917 48.5701 92.2917C48.3577 92.2917 48.1598 92.3448 47.9763 92.451C47.7929 92.5524 47.6433 92.7044 47.5274 92.9072C47.4164 93.1051 47.3609 93.3416 47.3609 93.6167C47.3609 93.8919 47.4164 94.1332 47.5274 94.3408C47.6433 94.5484 47.7929 94.7077 47.9763 94.8187C48.1646 94.9249 48.3625 94.978 48.5701 94.978C48.7825 94.978 48.9804 94.9249 49.1638 94.8187C49.3472 94.7125 49.4945 94.558 49.6055 94.3553C49.7213 94.1477 49.7793 93.9064 49.7793 93.6312ZM55.3526 93.5371C55.3526 93.6867 55.343 93.8219 55.3237 93.9426H52.2754C52.2995 94.2612 52.4178 94.517 52.6302 94.7101C52.8425 94.9032 53.1032 94.9997 53.4121 94.9997C53.8562 94.9997 54.17 94.8139 54.3534 94.4422H55.244C55.1234 94.809 54.9037 95.1107 54.5851 95.3473C54.2714 95.579 53.8804 95.6948 53.4121 95.6948C53.0308 95.6948 52.6881 95.6103 52.384 95.4414C52.0847 95.2676 51.8482 95.0263 51.6744 94.7173C51.5054 94.4036 51.421 94.0415 51.421 93.6312C51.421 93.2209 51.503 92.8613 51.6671 92.5524C51.8361 92.2386 52.0702 91.9972 52.3695 91.8283C52.6736 91.6593 53.0211 91.5749 53.4121 91.5749C53.7887 91.5749 54.1241 91.6569 54.4186 91.8211C54.713 91.9852 54.9423 92.2169 55.1065 92.5162C55.2706 92.8106 55.3526 93.1509 55.3526 93.5371ZM54.491 93.2764C54.4862 92.9723 54.3776 92.7286 54.1652 92.5451C53.9528 92.3617 53.6897 92.27 53.3759 92.27C53.0911 92.27 52.8474 92.3617 52.6446 92.5451C52.4419 92.7237 52.3212 92.9675 52.2826 93.2764H54.491ZM58.1779 91.5749C58.4916 91.5749 58.7716 91.64 59.0178 91.7704C59.2688 91.9007 59.4643 92.0938 59.6043 92.3496C59.7442 92.6055 59.8142 92.9144 59.8142 93.2764V95.6296H58.996V93.3995C58.996 93.0423 58.9067 92.7696 58.7281 92.5813C58.5495 92.3882 58.3058 92.2917 57.9968 92.2917C57.6879 92.2917 57.4417 92.3882 57.2583 92.5813C57.0797 92.7696 56.9904 93.0423 56.9904 93.3995V95.6296H56.1649V91.64H56.9904V92.0962C57.1255 91.9321 57.2969 91.8042 57.5045 91.7124C57.7169 91.6207 57.9413 91.5749 58.1779 91.5749ZM61.8301 92.3134V94.5218C61.8301 94.6715 61.8639 94.7801 61.9315 94.8476C62.0039 94.9104 62.1246 94.9418 62.2935 94.9418H62.8004V95.6296H62.1487C61.777 95.6296 61.4922 95.5428 61.2943 95.369C61.0964 95.1952 60.9975 94.9128 60.9975 94.5218V92.3134H60.5268V91.64H60.9975V90.6481H61.8301V91.64H62.8004V92.3134H61.8301ZM65.0093 95.6948C64.6955 95.6948 64.4131 95.6393 64.1621 95.5283C63.916 95.4124 63.7205 95.258 63.5756 95.0649C63.4308 94.867 63.3536 94.6473 63.3439 94.406H64.1983C64.2128 94.5749 64.2925 94.7173 64.4373 94.8332C64.5869 94.9442 64.7728 94.9997 64.9948 94.9997C65.2265 94.9997 65.4051 94.9563 65.5306 94.8694C65.661 94.7777 65.7261 94.6618 65.7261 94.5218C65.7261 94.3722 65.6537 94.2612 65.5089 94.1887C65.3689 94.1163 65.1445 94.0367 64.8355 93.9498C64.5362 93.8677 64.2925 93.7881 64.1042 93.7109C63.916 93.6336 63.7518 93.5154 63.6118 93.3561C63.4767 93.1968 63.4091 92.9868 63.4091 92.7261C63.4091 92.5137 63.4719 92.3207 63.5974 92.1469C63.7229 91.9683 63.9015 91.8283 64.1332 91.7269C64.3697 91.6256 64.64 91.5749 64.9441 91.5749C65.3979 91.5749 65.7623 91.6907 66.0375 91.9224C66.3174 92.1493 66.4671 92.4606 66.4864 92.8565H65.661C65.6465 92.6779 65.5741 92.5355 65.4437 92.4293C65.3134 92.3231 65.1372 92.27 64.9152 92.27C64.6979 92.27 64.5314 92.311 64.4156 92.3931C64.2997 92.4751 64.2418 92.5837 64.2418 92.7189C64.2418 92.8251 64.2804 92.9144 64.3576 92.9868C64.4349 93.0592 64.529 93.1171 64.64 93.1606C64.751 93.1992 64.9152 93.2499 65.1324 93.3126C65.422 93.3899 65.6585 93.4695 65.842 93.5516C66.0302 93.6288 66.1919 93.7447 66.3271 93.8991C66.4623 94.0536 66.5322 94.2587 66.5371 94.5146C66.5371 94.7415 66.4743 94.9442 66.3488 95.1228C66.2233 95.3014 66.0447 95.4414 65.813 95.5428C65.5861 95.6441 65.3182 95.6948 65.0093 95.6948ZM69.0347 93.6167C69.0347 93.2161 69.1168 92.8613 69.2809 92.5524C69.4498 92.2434 69.6767 92.0045 69.9615 91.8355C70.2511 91.6618 70.5697 91.5749 70.9173 91.5749C71.231 91.5749 71.5038 91.6376 71.7355 91.7631C71.972 91.8838 72.1603 92.0359 72.3002 92.2193V91.64H73.1329V95.6296H72.3002V95.0359C72.1603 95.2242 71.9696 95.381 71.7282 95.5065C71.4869 95.6321 71.2117 95.6948 70.9028 95.6948C70.5601 95.6948 70.2463 95.6079 69.9615 95.4341C69.6767 95.2555 69.4498 95.0094 69.2809 94.6956C69.1168 94.377 69.0347 94.0174 69.0347 93.6167ZM72.3002 93.6312C72.3002 93.3561 72.2423 93.1171 72.1265 92.9144C72.0154 92.7117 71.8682 92.5572 71.6848 92.451C71.5014 92.3448 71.3034 92.2917 71.091 92.2917C70.8787 92.2917 70.6807 92.3448 70.4973 92.451C70.3139 92.5524 70.1642 92.7044 70.0484 92.9072C69.9374 93.1051 69.8819 93.3416 69.8819 93.6167C69.8819 93.8919 69.9374 94.1332 70.0484 94.3408C70.1642 94.5484 70.3139 94.7077 70.4973 94.8187C70.6856 94.9249 70.8835 94.978 71.091 94.978C71.3034 94.978 71.5014 94.9249 71.6848 94.8187C71.8682 94.7125 72.0154 94.558 72.1265 94.3553C72.2423 94.1477 72.3002 93.9064 72.3002 93.6312ZM75.0425 92.2193C75.1632 92.0166 75.3225 91.8597 75.5204 91.7486C75.7231 91.6328 75.9621 91.5749 76.2372 91.5749V92.4293H76.0272C75.7038 92.4293 75.4576 92.5113 75.2887 92.6755C75.1246 92.8396 75.0425 93.1244 75.0425 93.5298V95.6296H74.2171V91.64H75.0425V92.2193ZM78.7265 95.6948C78.35 95.6948 78.0097 95.6103 77.7056 95.4414C77.4014 95.2676 77.1625 95.0263 76.9887 94.7173C76.815 94.4036 76.7281 94.0415 76.7281 93.6312C76.7281 93.2257 76.8174 92.8661 76.996 92.5524C77.1746 92.2386 77.4183 91.9972 77.7273 91.8283C78.0362 91.6593 78.3813 91.5749 78.7627 91.5749C79.144 91.5749 79.4892 91.6593 79.7981 91.8283C80.107 91.9972 80.3508 92.2386 80.5294 92.5524C80.708 92.8661 80.7973 93.2257 80.7973 93.6312C80.7973 94.0367 80.7056 94.3963 80.5222 94.7101C80.3387 95.0238 80.0877 95.2676 79.7691 95.4414C79.4554 95.6103 79.1078 95.6948 78.7265 95.6948ZM78.7265 94.978C78.9389 94.978 79.1368 94.9273 79.3202 94.8259C79.5085 94.7246 79.6605 94.5725 79.7764 94.3698C79.8922 94.167 79.9502 93.9208 79.9502 93.6312C79.9502 93.3416 79.8946 93.0978 79.7836 92.8999C79.6726 92.6972 79.5254 92.5451 79.3419 92.4438C79.1585 92.3424 78.9606 92.2917 78.7482 92.2917C78.5358 92.2917 78.3379 92.3424 78.1545 92.4438C77.9759 92.5451 77.8335 92.6972 77.7273 92.8999C77.6211 93.0978 77.568 93.3416 77.568 93.6312C77.568 94.0608 77.6766 94.3939 77.8938 94.6304C78.1159 94.8621 78.3934 94.978 78.7265 94.978ZM85.2264 91.64V95.6296H84.401V95.159C84.2706 95.3231 84.0993 95.4534 83.8869 95.55C83.6793 95.6417 83.4573 95.6876 83.2207 95.6876C82.907 95.6876 82.6246 95.6224 82.3736 95.4921C82.1274 95.3617 81.9319 95.1687 81.7871 94.9128C81.6471 94.657 81.5771 94.348 81.5771 93.986V91.64H82.3953V93.8629C82.3953 94.2201 82.4846 94.4953 82.6632 94.6884C82.8418 94.8766 83.0856 94.9707 83.3945 94.9707C83.7034 94.9707 83.9472 94.8766 84.1258 94.6884C84.3092 94.4953 84.401 94.2201 84.401 93.8629V91.64H85.2264ZM88.3284 91.5749C88.6421 91.5749 88.9221 91.64 89.1683 91.7704C89.4193 91.9007 89.6148 92.0938 89.7548 92.3496C89.8948 92.6055 89.9648 92.9144 89.9648 93.2764V95.6296H89.1466V93.3995C89.1466 93.0423 89.0573 92.7696 88.8787 92.5813C88.7001 92.3882 88.4563 92.2917 88.1474 92.2917C87.8384 92.2917 87.5922 92.3882 87.4088 92.5813C87.2302 92.7696 87.1409 93.0423 87.1409 93.3995V95.6296H86.3155V91.64H87.1409V92.0962C87.2761 91.9321 87.4474 91.8042 87.655 91.7124C87.8674 91.6207 88.0919 91.5749 88.3284 91.5749ZM90.7425 93.6167C90.7425 93.2161 90.8246 92.8613 90.9887 92.5524C91.1576 92.2434 91.3845 92.0045 91.6693 91.8355C91.9589 91.6618 92.2799 91.5749 92.6323 91.5749C92.893 91.5749 93.1488 91.6328 93.3998 91.7486C93.6557 91.8597 93.8584 92.0093 94.008 92.1976V90.2716H94.8407V95.6296H94.008V95.0287C93.8729 95.2217 93.6846 95.381 93.4433 95.5065C93.2067 95.6321 92.934 95.6948 92.6251 95.6948C92.2775 95.6948 91.9589 95.6079 91.6693 95.4341C91.3845 95.2555 91.1576 95.0094 90.9887 94.6956C90.8246 94.377 90.7425 94.0174 90.7425 93.6167ZM94.008 93.6312C94.008 93.3561 93.9501 93.1171 93.8343 92.9144C93.7232 92.7117 93.576 92.5572 93.3926 92.451C93.2092 92.3448 93.0113 92.2917 92.7989 92.2917C92.5865 92.2917 92.3886 92.3448 92.2051 92.451C92.0217 92.5524 91.8721 92.7044 91.7562 92.9072C91.6452 93.1051 91.5897 93.3416 91.5897 93.6167C91.5897 93.8919 91.6452 94.1332 91.7562 94.3408C91.8721 94.5484 92.0217 94.7077 92.2051 94.8187C92.3934 94.9249 92.5913 94.978 92.7989 94.978C93.0113 94.978 93.2092 94.9249 93.3926 94.8187C93.576 94.7125 93.7232 94.558 93.8343 94.3553C93.9501 94.1477 94.008 93.9064 94.008 93.6312ZM49.41 103.313V105.522C49.41 105.671 49.4438 105.78 49.5114 105.848C49.5838 105.91 49.7045 105.942 49.8734 105.942H50.3803V106.63H49.7286C49.3569 106.63 49.0721 106.543 48.8742 106.369C48.6763 106.195 48.5773 105.913 48.5773 105.522V103.313H48.1067V102.64H48.5773V101.648H49.41V102.64H50.3803V103.313H49.41ZM53.2046 102.575C53.5087 102.575 53.7791 102.64 54.0156 102.77C54.2569 102.901 54.4452 103.094 54.5804 103.35C54.7203 103.605 54.7903 103.914 54.7903 104.276V106.63H53.9721V104.4C53.9721 104.042 53.8828 103.77 53.7042 103.581C53.5256 103.388 53.2819 103.292 52.9729 103.292C52.664 103.292 52.4178 103.388 52.2344 103.581C52.0558 103.77 51.9665 104.042 51.9665 104.4V106.63H51.141V101.272H51.9665V103.103C52.1065 102.934 52.2827 102.804 52.495 102.712C52.7123 102.621 52.9488 102.575 53.2046 102.575ZM59.4998 104.537C59.4998 104.687 59.4901 104.822 59.4708 104.943H56.4225C56.4466 105.261 56.5649 105.517 56.7773 105.71C56.9897 105.903 57.2503 106 57.5593 106C58.0033 106 58.3171 105.814 58.5005 105.442H59.3911C59.2705 105.809 59.0508 106.111 58.7322 106.347C58.4185 106.579 58.0275 106.695 57.5593 106.695C57.1779 106.695 56.8352 106.61 56.5311 106.441C56.2318 106.268 55.9953 106.026 55.8215 105.717C55.6526 105.404 55.5681 105.042 55.5681 104.631C55.5681 104.221 55.6501 103.861 55.8143 103.552C55.9832 103.239 56.2173 102.997 56.5166 102.828C56.8207 102.659 57.1683 102.575 57.5593 102.575C57.9358 102.575 58.2713 102.657 58.5657 102.821C58.8602 102.985 59.0894 103.217 59.2536 103.516C59.4177 103.811 59.4998 104.151 59.4998 104.537ZM58.6381 104.276C58.6333 103.972 58.5247 103.729 58.3123 103.545C58.0999 103.362 57.8368 103.27 57.5231 103.27C57.2383 103.27 56.9945 103.362 56.7917 103.545C56.589 103.724 56.4683 103.967 56.4297 104.276H58.6381ZM63.8004 102.575C64.1093 102.575 64.382 102.638 64.6186 102.763C64.8599 102.884 65.0482 103.036 65.1833 103.219V102.64H66.016V106.695C66.016 107.062 65.9388 107.387 65.7843 107.672C65.6298 107.962 65.4054 108.189 65.1109 108.353C64.8213 108.517 64.4737 108.599 64.0683 108.599C63.5276 108.599 63.0787 108.471 62.7215 108.215C62.3643 107.964 62.1616 107.622 62.1133 107.187H62.9315C62.9942 107.395 63.127 107.561 63.3297 107.687C63.5373 107.817 63.7835 107.882 64.0683 107.882C64.4013 107.882 64.6692 107.781 64.872 107.578C65.0795 107.375 65.1833 107.081 65.1833 106.695V106.029C65.0433 106.217 64.8527 106.376 64.6113 106.507C64.3748 106.632 64.1045 106.695 63.8004 106.695C63.4528 106.695 63.1342 106.608 62.8446 106.434C62.5598 106.256 62.3329 106.009 62.164 105.696C61.9999 105.377 61.9178 105.017 61.9178 104.617C61.9178 104.216 61.9999 103.861 62.164 103.552C62.3329 103.243 62.5598 103.004 62.8446 102.836C63.1342 102.662 63.4528 102.575 63.8004 102.575ZM65.1833 104.631C65.1833 104.356 65.1254 104.117 65.0095 103.914C64.8985 103.712 64.7513 103.557 64.5679 103.451C64.3844 103.345 64.1865 103.292 63.9741 103.292C63.7617 103.292 63.5638 103.345 63.3804 103.451C63.197 103.552 63.0473 103.704 62.9315 103.907C62.8205 104.105 62.7649 104.342 62.7649 104.617C62.7649 104.892 62.8205 105.133 62.9315 105.341C63.0473 105.548 63.197 105.708 63.3804 105.819C63.5687 105.925 63.7666 105.978 63.9741 105.978C64.1865 105.978 64.3844 105.925 64.5679 105.819C64.7513 105.712 64.8985 105.558 65.0095 105.355C65.1254 105.148 65.1833 104.906 65.1833 104.631ZM67.9256 101.272V106.63H67.1002V101.272H67.9256ZM70.7398 106.695C70.3633 106.695 70.023 106.61 69.7189 106.441C69.4148 106.268 69.1759 106.026 69.0021 105.717C68.8283 105.404 68.7414 105.042 68.7414 104.631C68.7414 104.226 68.8307 103.866 69.0093 103.552C69.1879 103.239 69.4317 102.997 69.7406 102.828C70.0496 102.659 70.3947 102.575 70.7761 102.575C71.1574 102.575 71.5025 102.659 71.8115 102.828C72.1204 102.997 72.3642 103.239 72.5428 103.552C72.7214 103.866 72.8107 104.226 72.8107 104.631C72.8107 105.037 72.719 105.396 72.5355 105.71C72.3521 106.024 72.1011 106.268 71.7825 106.441C71.4687 106.61 71.1212 106.695 70.7398 106.695ZM70.7398 105.978C70.9522 105.978 71.1502 105.927 71.3336 105.826C71.5218 105.725 71.6739 105.573 71.7897 105.37C71.9056 105.167 71.9635 104.921 71.9635 104.631C71.9635 104.342 71.908 104.098 71.797 103.9C71.686 103.697 71.5387 103.545 71.3553 103.444C71.1719 103.342 70.974 103.292 70.7616 103.292C70.5492 103.292 70.3513 103.342 70.1678 103.444C69.9892 103.545 69.8468 103.697 69.7406 103.9C69.6344 104.098 69.5813 104.342 69.5813 104.631C69.5813 105.061 69.69 105.394 69.9072 105.63C70.1292 105.862 70.4068 105.978 70.7398 105.978ZM74.4521 103.234C74.5921 103.041 74.7828 102.884 75.0241 102.763C75.2703 102.638 75.543 102.575 75.8423 102.575C76.1947 102.575 76.5133 102.659 76.7981 102.828C77.0829 102.997 77.3073 103.239 77.4714 103.552C77.6356 103.861 77.7176 104.216 77.7176 104.617C77.7176 105.017 77.6356 105.377 77.4714 105.696C77.3073 106.009 77.0805 106.256 76.7908 106.434C76.506 106.608 76.1899 106.695 75.8423 106.695C75.5334 106.695 75.2582 106.634 75.0169 106.514C74.7803 106.393 74.5921 106.239 74.4521 106.05V106.63H73.6267V101.272H74.4521V103.234ZM76.8777 104.617C76.8777 104.342 76.8198 104.105 76.7039 103.907C76.5929 103.704 76.4433 103.552 76.255 103.451C76.0716 103.345 75.8737 103.292 75.6613 103.292C75.4537 103.292 75.2558 103.345 75.0675 103.451C74.8841 103.557 74.7345 103.712 74.6186 103.914C74.5076 104.117 74.4521 104.356 74.4521 104.631C74.4521 104.906 74.5076 105.148 74.6186 105.355C74.7345 105.558 74.8841 105.712 75.0675 105.819C75.2558 105.925 75.4537 105.978 75.6613 105.978C75.8737 105.978 76.0716 105.925 76.255 105.819C76.4433 105.708 76.5929 105.548 76.7039 105.341C76.8198 105.133 76.8777 104.892 76.8777 104.617ZM82.1904 104.537C82.1904 104.687 82.1808 104.822 82.1615 104.943H79.1132C79.1373 105.261 79.2556 105.517 79.4679 105.71C79.6803 105.903 79.941 106 80.2499 106C80.694 106 81.0078 105.814 81.1912 105.442H82.0818C81.9611 105.809 81.7415 106.111 81.4229 106.347C81.1092 106.579 80.7182 106.695 80.2499 106.695C79.8686 106.695 79.5259 106.61 79.2218 106.441C78.9225 106.268 78.686 106.026 78.5122 105.717C78.3432 105.404 78.2588 105.042 78.2588 104.631C78.2588 104.221 78.3408 103.861 78.5049 103.552C78.6739 103.239 78.908 102.997 79.2073 102.828C79.5114 102.659 79.8589 102.575 80.2499 102.575C80.6264 102.575 80.9619 102.657 81.2564 102.821C81.5508 102.985 81.7801 103.217 81.9442 103.516C82.1084 103.811 82.1904 104.151 82.1904 104.537ZM81.3288 104.276C81.324 103.972 81.2154 103.729 81.003 103.545C80.7906 103.362 80.5275 103.27 80.2137 103.27C79.9289 103.27 79.6852 103.362 79.4824 103.545C79.2797 103.724 79.159 103.967 79.1204 104.276H81.3288Z" fill="#333333"/>
<rect x="55.8293" y="34.9958" width="18.1016" height="18.1016" rx="9.05082" fill="#E1FFEE"/>
<path d="M64.8802 44.0466C65.3603 44.0466 65.8207 43.8559 66.1602 43.5164C66.4996 43.1769 66.6903 42.7165 66.6903 42.2364C66.6903 41.7563 66.4996 41.2959 66.1602 40.9565C65.8207 40.617 65.3603 40.4263 64.8802 40.4263C64.4001 40.4263 63.9397 40.617 63.6002 40.9565C63.2607 41.2959 63.07 41.7563 63.07 42.2364C63.07 42.7165 63.2607 43.1769 63.6002 43.5164C63.9397 43.8559 64.4001 44.0466 64.8802 44.0466ZM66.087 42.2364C66.087 42.5565 65.9598 42.8634 65.7335 43.0898C65.5072 43.3161 65.2002 43.4432 64.8802 43.4432C64.5601 43.4432 64.2532 43.3161 64.0269 43.0898C63.8005 42.8634 63.6734 42.5565 63.6734 42.2364C63.6734 41.9164 63.8005 41.6094 64.0269 41.3831C64.2532 41.1568 64.5601 41.0297 64.8802 41.0297C65.2002 41.0297 65.5072 41.1568 65.7335 41.3831C65.9598 41.6094 66.087 41.9164 66.087 42.2364ZM68.5005 47.0635C68.5005 47.6669 67.8971 47.6669 67.8971 47.6669H61.8632C61.8632 47.6669 61.2599 47.6669 61.2599 47.0635C61.2599 46.4601 61.8632 44.65 64.8802 44.65C67.8971 44.65 68.5005 46.4601 68.5005 47.0635ZM67.8971 47.0611C67.8965 46.9127 67.8042 46.4662 67.3951 46.0571C67.0017 45.6637 66.2613 45.2534 64.8802 45.2534C63.4984 45.2534 62.7587 45.6637 62.3653 46.0571C61.9562 46.4662 61.8645 46.9127 61.8632 47.0611H67.8971Z" fill="#09B451"/>
</g>
<defs>
<filter id="filter0_d_0_1213" x="0.499821" y="0.181553" width="129.364" height="139.622" filterUnits="userSpaceOnUse" color-interpolation-filters="sRGB">
<feFlood flood-opacity="0" result="BackgroundImageFix"/>
<feColorMatrix in="SourceAlpha" type="matrix" values="0 0 0 0 0 0 0 0 0 0 0 0 0 0 0 0 0 0 127 0" result="hardAlpha"/>
<feOffset/>
<feGaussianBlur stdDeviation="12.8818"/>
<feComposite in2="hardAlpha" operator="out"/>
<feColorMatrix type="matrix" values="0 0 0 0 0.4375 0 0 0 0 0.4375 0 0 0 0 0.4375 0 0 0 0.25 0"/>
<feBlend mode="normal" in2="BackgroundImageFix" result="effect1_dropShadow_0_1213"/>
<feBlend mode="normal" in="SourceGraphic" in2="effect1_dropShadow_0_1213" result="shape"/>
</filter>
</defs>
</svg>
