<svg width="138" height="32" viewBox="0 0 138 32" fill="none" xmlns="http://www.w3.org/2000/svg">
<path d="M5.5 8.5H26.5M5.5 24.5H26.5H5.5ZM5.5 16.5H26.5H5.5Z" stroke="black" stroke-width="1.5" stroke-linecap="round" stroke-linejoin="round"/>
<path d="M47.4569 23L44.4204 7.72415H47.2L48.5314 15.4321C48.6559 16.2419 48.7805 17.0594 48.9051 17.8847C49.0452 18.6944 49.1698 19.5041 49.2788 20.3139H49.3722C49.5435 19.5041 49.707 18.6944 49.8628 17.8847C50.034 17.0594 50.2053 16.2419 50.3766 15.4321L52.2452 7.72415H54.6043L56.4729 15.4321C56.6442 16.2263 56.8155 17.036 56.9868 17.8613C57.1581 18.6711 57.3294 19.4886 57.5007 20.3139H57.5941C57.7187 19.4886 57.8433 18.6711 57.9678 17.8613C58.0924 17.0516 58.2092 16.2419 58.3182 15.4321L59.6496 7.72415H62.2423L59.3226 23H55.9591L54.0671 14.965C53.9425 14.3733 53.818 13.7815 53.6934 13.1898C53.5844 12.5981 53.4832 12.0142 53.3897 11.438H53.2963C53.1873 12.0142 53.0705 12.5981 52.946 13.1898C52.8369 13.7815 52.7202 14.3733 52.5956 14.965L50.7503 23H47.4569ZM64.3866 23V11.5314H67.0727V23H64.3866ZM65.7413 9.52268C65.2586 9.52268 64.8693 9.38253 64.5735 9.10224C64.2776 8.82195 64.1297 8.44823 64.1297 7.98108C64.1297 7.5295 64.2776 7.16356 64.5735 6.88327C64.8693 6.60298 65.2586 6.46284 65.7413 6.46284C66.2241 6.46284 66.6134 6.60298 66.9092 6.88327C67.2051 7.16356 67.353 7.5295 67.353 7.98108C67.353 8.44823 67.2051 8.82195 66.9092 9.10224C66.6134 9.38253 66.2241 9.52268 65.7413 9.52268ZM75.1946 23.2803C74.1669 23.2803 73.1703 23.0856 72.2048 22.6964C71.2549 22.3071 70.4141 21.7543 69.6822 21.038L71.2705 19.1927C71.8155 19.7066 72.4384 20.127 73.1391 20.454C73.8398 20.7655 74.5406 20.9212 75.2413 20.9212C76.1133 20.9212 76.7751 20.7421 77.2267 20.384C77.6783 20.0258 77.9041 19.5509 77.9041 18.9591C77.9041 18.3207 77.6783 17.8613 77.2267 17.581C76.7907 17.3008 76.2301 17.0127 75.545 16.7168L73.4428 15.8059C72.9445 15.5879 72.454 15.3076 71.9712 14.965C71.5041 14.6224 71.1148 14.1864 70.8034 13.657C70.5075 13.1275 70.3596 12.4891 70.3596 11.7416C70.3596 10.9319 70.5776 10.2078 71.0136 9.56939C71.4652 8.91538 72.0725 8.40152 72.8355 8.02779C73.6141 7.6385 74.5016 7.44386 75.4982 7.44386C76.3858 7.44386 77.2423 7.62293 78.0676 7.98108C78.8929 8.32366 79.6014 8.79081 80.1931 9.38253L78.815 11.111C78.3323 10.7061 77.8184 10.3869 77.2734 10.1533C76.744 9.91976 76.1522 9.80297 75.4982 9.80297C74.7819 9.80297 74.198 9.96647 73.7464 10.2935C73.3104 10.6049 73.0924 11.0409 73.0924 11.6015C73.0924 11.9908 73.2014 12.3178 73.4194 12.5825C73.653 12.8317 73.9566 13.0497 74.3304 13.2365C74.7041 13.4078 75.1012 13.5791 75.5216 13.7504L77.6004 14.6146C78.5036 15.0039 79.2432 15.5178 79.8194 16.1562C80.3955 16.7791 80.6836 17.6433 80.6836 18.7489C80.6836 19.5742 80.4656 20.3295 80.0296 21.0146C79.5936 21.6998 78.9629 22.2526 78.1376 22.673C77.3279 23.0779 76.3469 23.2803 75.1946 23.2803ZM88.0161 23.2803C86.9728 23.2803 86.0307 23.0467 85.1898 22.5796C84.3645 22.0968 83.7027 21.4117 83.2044 20.5241C82.7217 19.6209 82.4803 18.5387 82.4803 17.2774C82.4803 16.0005 82.745 14.9183 83.2745 14.0307C83.8039 13.1275 84.5047 12.4424 85.3767 11.9752C86.2643 11.4925 87.2141 11.2511 88.2263 11.2511C88.9582 11.2511 89.5966 11.3757 90.1416 11.6249C90.6866 11.874 91.1693 12.1777 91.5898 12.5358L90.2818 14.2876C89.9859 14.0229 89.6822 13.8205 89.3708 13.6803C89.0594 13.5246 88.7246 13.4468 88.3664 13.4468C87.4477 13.4468 86.6925 13.7971 86.1008 14.4978C85.5246 15.1986 85.2365 16.1251 85.2365 17.2774C85.2365 18.4141 85.5168 19.3329 86.0774 20.0336C86.6535 20.7343 87.3932 21.0847 88.2964 21.0847C88.7479 21.0847 89.1684 20.9912 89.5577 20.8044C89.9625 20.602 90.3285 20.3684 90.6555 20.1037L91.7533 21.8788C91.2238 22.346 90.6321 22.6964 89.9781 22.9299C89.3241 23.1635 88.6701 23.2803 88.0161 23.2803ZM94.017 23V6.50955H96.7031V10.7606L96.6097 12.9796C97.0924 12.528 97.6296 12.1309 98.2213 11.7884C98.8131 11.4302 99.4982 11.2511 100.277 11.2511C101.507 11.2511 102.402 11.6482 102.963 12.4424C103.523 13.2365 103.804 14.3577 103.804 15.8059V23H101.118V16.1562C101.118 15.2064 100.978 14.5368 100.697 14.1475C100.417 13.7582 99.9576 13.5635 99.3191 13.5635C98.8208 13.5635 98.377 13.6881 97.9878 13.9373C97.614 14.1708 97.1858 14.5212 96.7031 14.9884V23H94.017ZM111.736 23.2803C110.787 23.2803 109.899 23.0467 109.074 22.5796C108.248 22.0968 107.579 21.4117 107.065 20.5241C106.551 19.6209 106.294 18.5387 106.294 17.2774C106.294 16.0005 106.551 14.9183 107.065 14.0307C107.579 13.1275 108.248 12.4424 109.074 11.9752C109.899 11.4925 110.787 11.2511 111.736 11.2511C112.702 11.2511 113.597 11.4925 114.423 11.9752C115.248 12.4424 115.917 13.1275 116.431 14.0307C116.945 14.9183 117.202 16.0005 117.202 17.2774C117.202 18.5387 116.945 19.6209 116.431 20.5241C115.917 21.4117 115.248 22.0968 114.423 22.5796C113.597 23.0467 112.702 23.2803 111.736 23.2803ZM111.736 21.0847C112.577 21.0847 113.239 20.7343 113.722 20.0336C114.205 19.3329 114.446 18.4141 114.446 17.2774C114.446 16.1251 114.205 15.1986 113.722 14.4978C113.239 13.7971 112.577 13.4468 111.736 13.4468C110.896 13.4468 110.234 13.7971 109.751 14.4978C109.284 15.1986 109.05 16.1251 109.05 17.2774C109.05 18.4141 109.284 19.3329 109.751 20.0336C110.234 20.7343 110.896 21.0847 111.736 21.0847ZM124.556 23.2803C123.606 23.2803 122.718 23.0467 121.893 22.5796C121.068 22.0968 120.398 21.4117 119.884 20.5241C119.37 19.6209 119.113 18.5387 119.113 17.2774C119.113 16.0005 119.37 14.9183 119.884 14.0307C120.398 13.1275 121.068 12.4424 121.893 11.9752C122.718 11.4925 123.606 11.2511 124.556 11.2511C125.521 11.2511 126.417 11.4925 127.242 11.9752C128.067 12.4424 128.737 13.1275 129.251 14.0307C129.764 14.9183 130.021 16.0005 130.021 17.2774C130.021 18.5387 129.764 19.6209 129.251 20.5241C128.737 21.4117 128.067 22.0968 127.242 22.5796C126.417 23.0467 125.521 23.2803 124.556 23.2803ZM124.556 21.0847C125.397 21.0847 126.058 20.7343 126.541 20.0336C127.024 19.3329 127.265 18.4141 127.265 17.2774C127.265 16.1251 127.024 15.1986 126.541 14.4978C126.058 13.7971 125.397 13.4468 124.556 13.4468C123.715 13.4468 123.053 13.7971 122.57 14.4978C122.103 15.1986 121.87 16.1251 121.87 17.2774C121.87 18.4141 122.103 19.3329 122.57 20.0336C123.053 20.7343 123.715 21.0847 124.556 21.0847ZM135.296 23.2803C134.346 23.2803 133.669 22.9922 133.264 22.4161C132.875 21.8399 132.68 21.0535 132.68 20.0569V6.50955H135.366V20.1971C135.366 20.5241 135.429 20.7577 135.553 20.8978C135.678 21.0224 135.81 21.0847 135.95 21.0847C136.012 21.0847 136.067 21.0847 136.114 21.0847C136.176 21.0691 136.262 21.0535 136.371 21.038L136.721 23.0467C136.565 23.109 136.363 23.1635 136.114 23.2102C135.88 23.2569 135.608 23.2803 135.296 23.2803Z" fill="black"/>
<circle cx="111.652" cy="7.12123" r="2.13636" fill="#09B451"/>
<circle cx="124.47" cy="7.12123" r="2.13636" fill="#09B451"/>
</svg>
